<svg xmlns="http://www.w3.org/2000/svg" viewBox="0 0 512 512" width="512" height="512">
  <defs>
    <linearGradient id="bg" x1="0%" y1="0%" x2="100%" y2="100%">
      <stop offset="0%" stop-color="#fdf7e2"/>
      <stop offset="100%" stop-color="#f9e7b3"/>
    </linearGradient>
    <linearGradient id="banana" x1="0%" y1="0%" x2="100%" y2="100%">
      <stop offset="0%" stop-color="#ffe17b"/>
      <stop offset="55%" stop-color="#f6b63e"/>
      <stop offset="100%" stop-color="#e1901a"/>
    </linearGradient>
  </defs>

  <rect x="20" y="20" width="472" height="472" rx="112" ry="112" fill="url(#bg)"/>

  <g opacity="0.15" fill="#b88c1c">
    <circle cx="110" cy="110" r="6"/>
    <circle cx="145" cy="110" r="6"/>
    <circle cx="180" cy="110" r="6"/>
    <circle cx="215" cy="110" r="6"/>
    <circle cx="110" cy="145" r="6"/>
    <circle cx="145" cy="145" r="6"/>
    <circle cx="180" cy="145" r="6"/>
    <circle cx="215" cy="145" r="6"/>
  </g>

  <g transform="translate(256, 270) rotate(-18)">
    <path d="M-120,20 C-120,-70 -30,-150 70,-150 C140,-150 180,-105 175,-55 C170,-5 125,55 60,95 C10,125 -55,125 -95,90 C-135,55 -120,20 -120,20 Z" fill="url(#banana)"/>
    <path d="M-98,12 C-90,-50 -35,-110 30,-120 C70,-126 110,-98 118,-70 C92,-88 60,-78 22,-50 C-22,-18 -62,10 -98,12 Z" fill="#fff3c4" opacity="0.65"/>
    <ellipse cx="-110" cy="50" rx="16" ry="11" fill="#7b5a12"/>
    <path d="M66,-150 C86,-172 110,-178 122,-170 C132,-162 112,-146 92,-134" fill="#7aa24a" stroke="#5f8434" stroke-width="3"/>
  </g>

  <text x="256" y="450" text-anchor="middle" font-family="Trebuchet MS, Arial Black, sans-serif" font-weight="900" font-size="34" fill="#1f1a12" letter-spacing="6">BANANABATCH</text>
</svg>
